<?xml version="1.0" standalone="no"?>
<!DOCTYPE svg PUBLIC "-//W3C//DTD SVG 20010904//EN"
 "http://www.w3.org/TR/2001/REC-SVG-20010904/DTD/svg10.dtd">
<svg version="1.0" xmlns="http://www.w3.org/2000/svg"
 width="213.000000pt" height="120.000000pt" viewBox="0 0 213.000000 120.000000"
 preserveAspectRatio="xMidYMid meet">

<g transform="translate(0.000000,120.000000) scale(0.100000,-0.100000)"
fill="#000000" stroke="none">
<path d="M240 669 l0 -151 101 4 c96 3 102 4 125 31 21 25 24 38 24 113 0 47
-5 94 -10 105 -19 35 -64 49 -155 49 l-85 0 0 -151z m173 77 c10 -15 6 -148
-6 -163 -5 -7 -27 -13 -48 -13 l-38 0 -3 96 c-2 53 -2 97 -1 98 7 6 89 -9 96
-18z"/>
<path d="M548 809 c-16 -9 -18 -27 -18 -137 0 -86 4 -132 12 -140 18 -18 133
-15 152 4 27 26 18 34 -39 34 l-55 0 0 35 c0 35 0 35 46 35 43 0 45 1 42 27
-3 25 -7 27 -45 28 -39 0 -42 2 -45 33 l-4 32 58 0 c63 0 74 12 40 43 -21 19
-116 23 -144 6z"/>
<path d="M736 811 c-3 -4 15 -36 39 -71 24 -35 41 -68 38 -74 -4 -6 -27 -39
-50 -72 -24 -34 -43 -65 -43 -68 0 -4 16 -6 37 -4 31 3 41 10 69 51 l33 48 33
-50 c30 -46 37 -51 71 -51 20 0 37 2 37 5 0 3 -22 38 -50 76 l-49 71 40 59
c57 84 58 89 16 89 -31 0 -39 -6 -64 -45 -15 -25 -30 -45 -33 -45 -3 0 -18 20
-33 45 -23 36 -34 45 -57 45 -16 0 -31 -4 -34 -9z"/>
<path d="M1020 701 c0 -65 3 -127 6 -136 9 -24 58 -45 104 -45 38 0 40 2 40
30 0 26 -4 30 -28 30 -54 0 -61 15 -64 130 l-3 105 -27 3 -28 3 0 -120z"/>
<path d="M1530 670 l0 -150 35 0 35 0 0 115 0 115 33 0 c19 0 36 -3 40 -6 3
-4 -10 -26 -29 -50 l-36 -44 36 -65 c36 -63 38 -65 77 -65 l40 0 -35 63 -35
62 25 28 c32 38 33 95 1 125 -20 19 -35 22 -105 22 l-82 0 0 -150z"/>
<path d="M1301 783 c2 -24 2 -25 6 -5 4 21 9 22 93 22 84 0 89 -1 93 -22 4
-20 4 -19 6 5 l1 27 -100 0 -100 0 1 -27z"/>
<path d="M1784 565 c0 -137 2 -195 3 -128 2 67 2 179 0 250 -1 70 -3 16 -3
-122z"/>
<path d="M80 765 c0 -33 2 -35 35 -35 33 0 35 2 35 35 0 33 -2 35 -35 35 -33
0 -35 -2 -35 -35z m60 0 c0 -20 -5 -25 -25 -25 -20 0 -25 5 -25 25 0 20 5 25
25 25 20 0 25 -5 25 -25z"/>
<path d="M1358 773 c23 -2 61 -2 85 0 23 2 4 4 -43 4 -47 0 -66 -2 -42 -4z"/>
<path d="M1240 675 l0 -25 110 0 110 0 0 25 0 25 -110 0 -110 0 0 -25z"/>
<path d="M80 570 l0 -40 40 0 40 0 0 40 0 40 -40 0 -40 0 0 -40z"/>
<path d="M1190 550 l0 -30 110 0 110 0 0 30 0 30 -110 0 -110 0 0 -30z"/>
<path d="M1851 351 c-15 -27 -14 -28 13 -28 18 0 22 4 19 18 -8 28 -21 32 -32
10z"/>
<path d="M1893 354 c-7 -19 20 -49 36 -40 6 4 11 18 11 32 0 17 -5 24 -20 24
-11 0 -23 -7 -27 -16z m34 -9 c0 -8 -4 -15 -9 -15 -4 0 -8 7 -8 15 0 8 4 15 8
15 5 0 9 -7 9 -15z"/>
<path d="M1950 346 c0 -18 5 -22 28 -21 15 1 32 -3 38 -7 7 -5 18 -2 28 8 24
24 5 41 -49 42 -40 0 -45 -2 -45 -22z m90 -1 c0 -8 -4 -15 -9 -15 -13 0 -22
16 -14 24 11 11 23 6 23 -9z"/>
</g>
</svg>
